STARTFONT 2.3
FONT -FontForge-Zen Loop-Book-R-Normal--24-240-72-72-P-76-ISO10646-1
SIZE 24 72 72  4
FONTBOUNDINGBOX 21 28 -3 -7
COMMENT "Generated by fontforge, http://fontforge.sourceforge.net"
COMMENT "Copyright 2021 The Zen-Loop Project Authors (https://github.com/googlefonts/zen-loop)"
STARTPROPERTIES 40
FOUNDRY "FontForge"
FAMILY_NAME "Zen Loop"
WEIGHT_NAME "Book"
SLANT "R"
SETWIDTH_NAME "Normal"
ADD_STYLE_NAME ""
PIXEL_SIZE 24
POINT_SIZE 240
RESOLUTION_X 72
RESOLUTION_Y 72
SPACING "P"
AVERAGE_WIDTH 76
CHARSET_REGISTRY "ISO10646"
CHARSET_ENCODING "1"
FONTNAME_REGISTRY ""
CHARSET_COLLECTIONS "ISO10646-1"
BITS_PER_PIXEL 4
FONT_NAME "ZenLoop-Regular"
FACE_NAME "Zen Loop Regular"
COPYRIGHT "Copyright 2021 The Zen-Loop Project Authors (https://github.com/googlefonts/zen-loop)"
FONT_VERSION "1.000; ttfautohint (v1.8.3)"
FONT_ASCENT 19
FONT_DESCENT 5
UNDERLINE_POSITION -3
UNDERLINE_THICKNESS 1
X_HEIGHT 11
CAP_HEIGHT 16
RAW_ASCENT 800
RAW_DESCENT 200
NORM_SPACE 6
RELATIVE_WEIGHT 40
RELATIVE_SETWIDTH 50
SUPERSCRIPT_X 0
SUPERSCRIPT_Y 8
SUPERSCRIPT_SIZE 14
SUBSCRIPT_X 0
SUBSCRIPT_Y 1
SUBSCRIPT_SIZE 14
AVG_LOWERCASE_WIDTH 68
AVG_UPPERCASE_WIDTH 91
ENDPROPERTIES
CHARS 248
STARTCHAR CR
ENCODING 13
SWIDTH 600 0
DWIDTH 14 0
BBX 1 1 0 0
BITMAP
00
ENDCHAR
STARTCHAR space
ENCODING 32
SWIDTH 240 0
DWIDTH 6 0
BBX 1 1 0 0
BITMAP
00
ENDCHAR
STARTCHAR exclam
ENCODING 33
SWIDTH 141 0
DWIDTH 3 0
BBX 1 17 1 0
BITMAP
70
80
80
80
80
80
80
80
80
80
80
80
20
00
30
80
70
ENDCHAR
STARTCHAR quotedbl
ENCODING 34
SWIDTH 195 0
DWIDTH 5 0
BBX 3 5 1 12
BITMAP
7070
8070
8070
8070
5050
ENDCHAR
STARTCHAR numbersign
ENCODING 35
SWIDTH 454 0
DWIDTH 11 0
BBX 11 17 0 0
BITMAP
000070006100
000080008000
000080008000
000170007000
000340026000
038B988B9830
000800071000
000800080000
000800080000
001700070000
003400260000
48B988AA8300
008000710000
008000800000
008000800000
017000700000
034002500000
ENDCHAR
STARTCHAR dollar
ENCODING 36
SWIDTH 356 0
DWIDTH 9 0
BBX 8 23 0 -3
BITMAP
00003000
00016000
00016000
006AB820
06516080
09016023
08016000
08016000
08116000
01826000
002A6000
0002C200
00017830
00016082
00016018
00016008
61016008
27016017
06516191
0049B820
00016000
00016000
00003000
ENDCHAR
STARTCHAR percent
ENCODING 37
SWIDTH 470 0
DWIDTH 11 0
BBX 10 17 1 0
BITMAP
1986000210
8107200800
8002701700
8000806200
8000808000
8003544000
6309180000
0783260000
0000710000
0000728810
0006291190
0008270071
0035440044
0080440044
0170260062
07100A0090
0700039930
ENDCHAR
STARTCHAR ampersand
ENCODING 38
SWIDTH 520 0
DWIDTH 12 0
BBX 11 17 1 0
BITMAP
000398300000
000900800000
001700800000
002600800000
001702600000
000808000000
000882000000
000B30000000
008460008800
082080072330
460063080000
800008440000
800006A00000
800001C00000
800006670000
730038056000
088870003850
ENDCHAR
STARTCHAR quotesingle
ENCODING 39
SWIDTH 121 0
DWIDTH 3 0
BBX 1 5 1 12
BITMAP
70
80
80
80
50
ENDCHAR
STARTCHAR parenleft
ENCODING 40
SWIDTH 233 0
DWIDTH 6 0
BBX 4 20 1 -2
BITMAP
0003
0027
0081
0170
0530
0800
0800
1600
3500
4400
4300
3400
2500
0700
0800
0710
0350
0080
0053
0008
ENDCHAR
STARTCHAR parenright
ENCODING 41
SWIDTH 233 0
DWIDTH 6 0
BBX 4 20 0 -2
BITMAP
2600
0800
0260
0080
0062
0025
0008
0008
0008
0008
0007
0007
0008
0017
0044
0080
0080
0630
0800
1200
ENDCHAR
STARTCHAR asterisk
ENCODING 42
SWIDTH 313 0
DWIDTH 8 0
BBX 6 6 1 11
BITMAP
007000
008000
77A783
01B700
082720
030030
ENDCHAR
STARTCHAR plus
ENCODING 43
SWIDTH 577 0
DWIDTH 14 0
BBX 12 12 1 0
BITMAP
000005200000
000005300000
000005300000
000005300000
000005300000
000005300000
58888A988884
000005300000
000005300000
000005300000
000005300000
000004200000
ENDCHAR
STARTCHAR comma
ENCODING 44
SWIDTH 145 0
DWIDTH 3 0
BBX 2 5 0 -2
BITMAP
06
07
07
08
56
ENDCHAR
STARTCHAR hyphen
ENCODING 45
SWIDTH 286 0
DWIDTH 7 0
BBX 5 1 1 7
BITMAP
788860
ENDCHAR
STARTCHAR period
ENCODING 46
SWIDTH 181 0
DWIDTH 4 0
BBX 2 3 1 0
BITMAP
03
16
16
ENDCHAR
STARTCHAR slash
ENCODING 47
SWIDTH 292 0
DWIDTH 7 0
BBX 7 21 0 -2
BITMAP
00000030
00000080
00000350
00000710
00000800
00002600
00006100
00008000
00017000
00062000
00080000
00170000
00530000
00800000
00800000
04400000
08000000
08000000
35000000
71000000
70000000
ENDCHAR
STARTCHAR zero
ENCODING 48
SWIDTH 378 0
DWIDTH 9 0
BBX 9 17 0 0
BITMAP
0019881000
0091008000
0260005300
0720000800
0900000800
0800000800
0800000700
0800000710
1700000610
0800000710
0800000700
0800000800
0900000800
0720000800
0360005300
0091008000
0019881000
ENDCHAR
STARTCHAR one
ENCODING 49
SWIDTH 303 0
DWIDTH 7 0
BBX 7 17 0 0
BITMAP
017C0000
18380000
00080000
00080000
00080000
00080000
00080000
00080000
00080000
00080000
00080000
00080000
00080000
00080000
00080000
00080000
288B8860
ENDCHAR
STARTCHAR two
ENCODING 50
SWIDTH 343 0
DWIDTH 8 0
BBX 8 17 0 0
BITMAP
00788810
07300190
05000071
00000043
00000043
00000062
00000080
00000260
00000900
00007200
00045000
00180000
00910000
05400000
08000000
44000000
78888884
ENDCHAR
STARTCHAR three
ENCODING 51
SWIDTH 377 0
DWIDTH 9 0
BBX 9 17 0 0
BITMAP
0038892000
0280009000
0210005300
0000003500
0000005400
0000008000
0028896000
00904AA000
0078603700
0000000900
0000000800
0000000710
0000000800
0000000800
0000001700
1800009100
0288882000
ENDCHAR
STARTCHAR four
ENCODING 52
SWIDTH 389 0
DWIDTH 9 0
BBX 9 17 0 0
BITMAP
0000034000
0000080000
0000170000
0000710000
0000800000
0005307000
0008008000
0035008000
0080008000
0170008000
0710008000
0800008000
298888C830
0000008000
0000008000
0000008000
0000007000
ENDCHAR
STARTCHAR five
ENCODING 53
SWIDTH 372 0
DWIDTH 9 0
BBX 9 18 0 0
BITMAP
0000001800
0068887100
0071000000
0071000000
0071000000
0071000000
0071000000
0088871000
05C0029000
0870003700
0780000800
0740000800
0000000710
0000000800
0000000900
0000002800
2800009100
0288882000
ENDCHAR
STARTCHAR six
ENCODING 54
SWIDTH 360 0
DWIDTH 9 0
BBX 7 17 1 0
BITMAP
00018000
00091000
00820000
02600000
08000000
17000000
62000000
80688300
87300820
80000180
80000090
70000080
80000080
80000080
81000260
28000910
04989200
ENDCHAR
STARTCHAR seven
ENCODING 55
SWIDTH 321 0
DWIDTH 8 0
BBX 7 17 0 0
BITMAP
288888A0
00000170
00000520
00000700
00001700
00005300
00007000
00007000
00043000
00070000
00070000
00340000
00700000
00700000
03500000
07000000
07000000
ENDCHAR
STARTCHAR eight
ENCODING 56
SWIDTH 377 0
DWIDTH 9 0
BBX 8 17 1 0
BITMAP
04989400
28000720
80000080
80000080
80000080
54000350
09101900
01958100
00697000
08302800
64000360
90000080
80000071
80000080
90000090
47000650
05988500
ENDCHAR
STARTCHAR nine
ENCODING 57
SWIDTH 360 0
DWIDTH 9 0
BBX 8 17 0 0
BITMAP
00588810
04600190
09000063
17000017
35000008
44000008
36000008
08000008
06300747
00688344
00000071
00000080
00000440
00000800
00006300
00047000
00280000
ENDCHAR
STARTCHAR colon
ENCODING 58
SWIDTH 181 0
DWIDTH 4 0
BBX 2 12 1 0
BITMAP
03
16
16
00
00
00
00
00
00
03
16
16
ENDCHAR
STARTCHAR semicolon
ENCODING 59
SWIDTH 165 0
DWIDTH 4 0
BBX 2 14 0 -2
BITMAP
03
07
07
00
00
00
00
00
00
06
07
07
08
56
ENDCHAR
STARTCHAR less
ENCODING 60
SWIDTH 482 0
DWIDTH 12 0
BBX 10 10 1 1
BITMAP
0000000022
0000002871
0000177100
0017710000
1771000000
7810000000
0287100000
0002871000
0000028610
0000000282
ENDCHAR
STARTCHAR equal
ENCODING 61
SWIDTH 577 0
DWIDTH 14 0
BBX 12 5 1 4
BITMAP
688888888884
000000000000
000000000000
000000000000
688888888884
ENDCHAR
STARTCHAR greater
ENCODING 62
SWIDTH 482 0
DWIDTH 12 0
BBX 10 10 1 0
BITMAP
6600000000
0386000000
0003860000
0000038500
00000003A2
0000003850
0000385000
0038500000
3850000000
3000000000
ENDCHAR
STARTCHAR question
ENCODING 63
SWIDTH 300 0
DWIDTH 7 0
BBX 6 17 0 0
BITMAP
049881
180028
110008
000008
000008
000063
000180
000810
002600
008000
008000
005400
000200
000000
001300
002600
002500
ENDCHAR
STARTCHAR at
ENCODING 64
SWIDTH 748 0
DWIDTH 18 0
BBX 16 17 1 0
BITMAP
0000288888850000
0007710000039300
0092000058300830
0820000640800090
3600003600800026
8000008000600008
8000054000000008
8000080057000007
7000170278000007
8000530728000008
8000800863000053
8000700770000270
3600711A70005700
0820187048883000
0092000000000650
0007710000028500
0000288988871000
ENDCHAR
STARTCHAR A
ENCODING 65
SWIDTH 414 0
DWIDTH 10 0
BBX 10 17 0 0
BITMAP
0000540000
0000870000
0000770000
0002561000
0006115000
0006006000
0006006000
0033004200
0050000500
0088888700
0050000500
0420000330
0600000060
0600000060
1600000060
4200000043
6000000006
ENDCHAR
STARTCHAR B
ENCODING 66
SWIDTH 375 0
DWIDTH 9 0
BBX 7 17 1 0
BITMAP
88888100
80001900
80000530
80000260
80000080
80000180
81984350
82706B10
80488A10
80000360
80000090
80000080
80000090
80000080
80000550
80001900
88888100
ENDCHAR
STARTCHAR C
ENCODING 67
SWIDTH 366 0
DWIDTH 9 0
BBX 8 17 0 0
BITMAP
00068885
00640003
01800000
06200000
08000000
08000000
08000000
08000000
17000000
08000000
08000000
08000000
08000000
06200000
01800000
00640003
00068885
ENDCHAR
STARTCHAR D
ENCODING 68
SWIDTH 396 0
DWIDTH 10 0
BBX 8 17 1 0
BITMAP
88888300
80000820
80000180
80000080
80000053
80000035
80000017
80000008
80000008
80000008
80000017
80000035
80000053
80000080
80000180
80000820
88888300
ENDCHAR
STARTCHAR E
ENCODING 69
SWIDTH 309 0
DWIDTH 7 0
BBX 6 17 1 0
BITMAP
888883
800000
800000
800000
800000
800000
800000
888881
800000
800000
800000
800000
800000
800000
800000
800000
888883
ENDCHAR
STARTCHAR F
ENCODING 70
SWIDTH 299 0
DWIDTH 7 0
BBX 6 17 1 0
BITMAP
888883
800000
800000
800000
800000
800000
800000
888881
800000
800000
800000
800000
800000
800000
800000
800000
700000
ENDCHAR
STARTCHAR G
ENCODING 71
SWIDTH 382 0
DWIDTH 9 0
BBX 9 17 0 0
BITMAP
0006888500
0064000200
0180000000
0620000000
0800000000
0800000000
0800000000
0800000000
1700000000
0800088920
0800000430
0800000430
0800000430
0620000430
0180000430
0064000620
0006888500
ENDCHAR
STARTCHAR H
ENCODING 72
SWIDTH 425 0
DWIDTH 10 0
BBX 8 17 1 0
BITMAP
70000007
80000008
80000008
80000008
80000008
80000008
80000008
8888888A
80000008
80000008
80000008
80000008
80000008
80000008
80000008
80000008
70000007
ENDCHAR
STARTCHAR I
ENCODING 73
SWIDTH 141 0
DWIDTH 3 0
BBX 1 17 1 0
BITMAP
70
80
80
80
80
80
80
80
80
80
80
80
80
80
80
80
70
ENDCHAR
STARTCHAR J
ENCODING 74
SWIDTH 142 0
DWIDTH 3 0
BBX 4 22 -2 -5
BITMAP
0007
0008
0008
0008
0008
0008
0008
0008
0008
0008
0008
0008
0008
0008
0008
0008
0008
0007
0007
0007
0053
8850
ENDCHAR
STARTCHAR K
ENCODING 75
SWIDTH 401 0
DWIDTH 10 0
BBX 9 17 0 0
BITMAP
0070000550
0080002800
0080008100
0080018000
0080063000
0080080000
28B9A30000
91877A1000
78B3019000
0080007200
0080001700
0080000800
0080000800
0080000710
0080000440
0080000170
0070000070
ENDCHAR
STARTCHAR L
ENCODING 76
SWIDTH 347 0
DWIDTH 8 0
BBX 7 17 1 0
BITMAP
70000000
80000000
80000000
80000000
80000000
80000000
80000000
80000000
80000000
80000000
80000000
80000000
80000000
80000000
80000000
80000000
88888840
ENDCHAR
STARTCHAR M
ENCODING 77
SWIDTH 534 0
DWIDTH 13 0
BBX 11 17 1 0
BITMAP
0A2000004900
08A300058800
080940670800
070088600800
16002C100800
250082700700
440080800710
530083600620
62003C100530
71001C000440
700057200350
800074400260
80004A100170
800003000070
800000000080
800000000080
700000000070
ENDCHAR
STARTCHAR N
ENCODING 78
SWIDTH 422 0
DWIDTH 10 0
BBX 8 17 1 0
BITMAP
71000007
87000008
89000008
85400008
80900008
80720008
80170008
80080008
80045008
80009008
80006208
80001808
80000808
80000358
80000088
8000005A
70000009
ENDCHAR
STARTCHAR O
ENCODING 79
SWIDTH 446 0
DWIDTH 11 0
BBX 10 17 0 0
BITMAP
0006888300
0064000820
0180000090
0620000072
0800000035
0800000008
0800000008
0800000008
1700000008
0800000008
0800000008
0800000008
0800000036
0620000072
0180000090
0064000830
0006888300
ENDCHAR
STARTCHAR P
ENCODING 80
SWIDTH 341 0
DWIDTH 8 0
BBX 7 17 1 0
BITMAP
88889200
80000900
80000530
80000260
80000260
80000440
80000810
80005600
88884000
80000000
80000000
80000000
80000000
80000000
80000000
80000000
70000000
ENDCHAR
STARTCHAR Q
ENCODING 81
SWIDTH 446 0
DWIDTH 11 0
BBX 10 24 0 -7
BITMAP
0006888300
0064000820
0180000090
0620000072
0800000035
0800000008
0800000008
0800000008
1700000008
0800000008
0B10000019
0A91000198
0819202936
0620858072
01801D1090
0074737830
0007C8C400
0000817000
00003B2000
00000C0000
0000493000
0000645000
0000483000
0000050000
ENDCHAR
STARTCHAR R
ENCODING 82
SWIDTH 380 0
DWIDTH 9 0
BBX 9 17 0 0
BITMAP
0888893000
0800008100
0800002600
0800000800
0800000800
0800002700
5B87208100
9801894000
2B88782000
0800018000
0800008000
0800004400
0800000800
0800000800
0800000700
0800000440
0700000160
ENDCHAR
STARTCHAR S
ENCODING 83
SWIDTH 356 0
DWIDTH 9 0
BBX 8 17 0 0
BITMAP
00688830
06500081
09000022
08000000
08000000
08100000
01800000
00380000
00029100
00001920
00000091
00000027
00000008
50000008
45000008
09200073
00788940
ENDCHAR
STARTCHAR T
ENCODING 84
SWIDTH 377 0
DWIDTH 9 0
BBX 9 17 0 0
BITMAP
5888C88860
0000800000
0000800000
0000800000
0000800000
0000800000
0000800000
0000800000
0000800000
0000800000
0000800000
0000800000
0000800000
0000800000
0000800000
0000800000
0000700000
ENDCHAR
STARTCHAR U
ENCODING 85
SWIDTH 412 0
DWIDTH 10 0
BBX 8 17 1 0
BITMAP
70000007
80000008
80000008
80000008
80000008
80000008
80000008
80000008
80000008
80000008
80000008
80000008
80000008
70000007
70000017
28000081
04988930
ENDCHAR
STARTCHAR V
ENCODING 86
SWIDTH 384 0
DWIDTH 9 0
BBX 9 17 0 0
BITMAP
7000000070
5300000070
1600000340
0700000610
0700000700
0620000700
0260002500
0070006100
0070007000
0061007000
0035025000
0007052000
0007070000
0007170000
0003660000
0000C20000
0000900000
ENDCHAR
STARTCHAR W
ENCODING 87
SWIDTH 534 0
DWIDTH 13 0
BBX 11 17 1 0
BITMAP
700000000070
700000000070
700000000070
800000000070
800000000170
80004A200260
700072500350
710072600440
620074400530
53004A100620
44000B000710
25003C100700
160082700700
070540630700
072800090700
089000028700
0A1000003800
ENDCHAR
STARTCHAR X
ENCODING 88
SWIDTH 318 0
DWIDTH 8 0
BBX 8 17 0 0
BITMAP
25000070
08000170
07100620
02600800
00802500
00527100
00178000
00094000
00094000
00178000
00627100
00802600
03500800
07100530
08000180
53000080
70000034
ENDCHAR
STARTCHAR Y
ENCODING 89
SWIDTH 370 0
DWIDTH 9 0
BBX 9 17 0 0
BITMAP
7000000160
4400000620
0800000800
0630004400
0080008000
0071036000
0017080000
0008170000
0003B20000
0000900000
0000800000
0000800000
0000800000
0000800000
0000800000
0000800000
0000700000
ENDCHAR
STARTCHAR Z
ENCODING 90
SWIDTH 309 0
DWIDTH 7 0
BBX 7 17 0 0
BITMAP
288888A0
00000260
00000710
00000800
00003400
00007000
00007000
00053000
00080000
00170000
00620000
00800000
02600000
07100000
08000000
34000000
88888870
ENDCHAR
STARTCHAR bracketleft
ENCODING 91
SWIDTH 193 0
DWIDTH 5 0
BBX 4 21 1 -2
BITMAP
6884
8000
8000
8000
8000
8000
8000
8000
8000
8000
8000
8000
8000
8000
8000
8000
8000
8000
8000
8000
6884
ENDCHAR
STARTCHAR backslash
ENCODING 92
SWIDTH 292 0
DWIDTH 7 0
BBX 7 21 0 -2
BITMAP
30000000
80000000
53000000
17000000
08000000
06200000
01600000
00800000
00710000
00260000
00080000
00071000
00035000
00008000
00008000
00004400
00000800
00000800
00000530
00000170
00000070
ENDCHAR
STARTCHAR bracketright
ENCODING 93
SWIDTH 193 0
DWIDTH 5 0
BBX 4 21 0 -2
BITMAP
7892
0053
0053
0053
0053
0053
0053
0053
0053
0053
0053
0053
0053
0053
0053
0053
0053
0053
0053
0053
7892
ENDCHAR
STARTCHAR asciicircum
ENCODING 94
SWIDTH 416 0
DWIDTH 10 0
BBX 10 10 0 8
BITMAP
0000330000
0000890000
0003663000
0008008000
0026007200
0081001800
0170000710
0710000170
1800000081
5200000025
ENDCHAR
STARTCHAR underscore
ENCODING 95
SWIDTH 556 0
DWIDTH 13 0
BBX 12 1 1 -1
BITMAP
788888888882
ENDCHAR
STARTCHAR grave
ENCODING 96
SWIDTH 201 0
DWIDTH 5 0
BBX 3 3 1 13
BITMAP
5100
1800
0530
ENDCHAR
STARTCHAR a
ENCODING 97
SWIDTH 315 0
DWIDTH 8 0
BBX 7 12 0 0
BITMAP
00889100
08201700
00000700
00000800
00000800
00027900
00771800
08200800
27000800
44000800
26006900
07884880
ENDCHAR
STARTCHAR b
ENCODING 98
SWIDTH 298 0
DWIDTH 7 0
BBX 6 18 1 0
BITMAP
700000
800000
800000
800000
800000
800000
868800
840260
800080
800080
800062
800052
800052
800062
800080
800080
830260
778810
ENDCHAR
STARTCHAR c
ENCODING 99
SWIDTH 275 0
DWIDTH 7 0
BBX 5 12 1 0
BITMAP
068910
360180
800050
800000
800000
800000
800000
800000
800000
800050
360170
068910
ENDCHAR
STARTCHAR d
ENCODING 100
SWIDTH 298 0
DWIDTH 7 0
BBX 5 18 1 0
BITMAP
000070
000070
000070
000070
000070
000070
078880
4402A0
800080
800070
800070
800070
800070
800070
800070
800070
5402A0
078870
ENDCHAR
STARTCHAR e
ENCODING 101
SWIDTH 285 0
DWIDTH 7 0
BBX 6 12 1 0
BITMAP
068810
350170
700080
700071
B88891
700000
800000
800000
900000
810060
270180
068910
ENDCHAR
STARTCHAR f
ENCODING 102
SWIDTH 178 0
DWIDTH 4 0
BBX 6 18 0 0
BITMAP
001784
008100
017000
025000
034000
034000
79A810
034000
034000
034000
034000
034000
034000
034000
034000
034000
034000
034000
ENDCHAR
STARTCHAR g
ENCODING 103
SWIDTH 302 0
DWIDTH 7 0
BBX 9 18 -1 -5
BITMAP
0000009000
0007895000
0045017000
0080008000
0080006100
0080006200
0080007100
0081009000
0027037000
002A970000
0090000000
0093000000
0015885000
0440004900
0900000440
1700000450
0920001910
0178888200
ENDCHAR
STARTCHAR h
ENCODING 104
SWIDTH 307 0
DWIDTH 7 0
BBX 6 18 1 0
BITMAP
700000
800000
800000
800000
800000
800000
848860
870080
800062
800053
800053
800053
800053
800053
800053
800053
800053
700052
ENDCHAR
STARTCHAR i
ENCODING 105
SWIDTH 141 0
DWIDTH 3 0
BBX 1 16 1 0
BITMAP
60
80
70
00
70
80
80
80
80
80
80
80
80
80
80
70
ENDCHAR
STARTCHAR j
ENCODING 106
SWIDTH 141 0
DWIDTH 3 0
BBX 4 21 -2 -5
BITMAP
0006
0008
0007
0000
0007
0008
0008
0008
0008
0008
0008
0008
0008
0008
0008
0008
0008
0007
0008
0045
6860
ENDCHAR
STARTCHAR k
ENCODING 107
SWIDTH 287 0
DWIDTH 7 0
BBX 6 18 1 0
BITMAP
700000
800000
800000
800000
800000
800000
800060
800460
801800
808100
85A100
873500
800800
800710
800350
800080
800071
700034
ENDCHAR
STARTCHAR l
ENCODING 108
SWIDTH 141 0
DWIDTH 3 0
BBX 1 18 1 0
BITMAP
70
80
80
80
80
80
80
80
80
80
80
80
80
80
80
80
80
70
ENDCHAR
STARTCHAR m
ENCODING 109
SWIDTH 407 0
DWIDTH 10 0
BBX 8 12 1 0
BITMAP
78000077
83911938
80299208
80066008
80088008
80077008
80078008
80055008
80000008
80000008
80000008
70000007
ENDCHAR
STARTCHAR n
ENCODING 110
SWIDTH 307 0
DWIDTH 7 0
BBX 6 12 1 0
BITMAP
748860
870080
800062
800053
800053
800053
800053
800053
800053
800053
800053
700052
ENDCHAR
STARTCHAR o
ENCODING 111
SWIDTH 309 0
DWIDTH 7 0
BBX 6 12 1 0
BITMAP
068810
360170
800070
800053
800025
800016
800026
800025
800053
800070
360170
068810
ENDCHAR
STARTCHAR p
ENCODING 112
SWIDTH 299 0
DWIDTH 7 0
BBX 7 18 0 -5
BITMAP
07000000
0A888100
6A002700
08000800
08000710
08000620
08000530
08000530
08000620
08000700
08000800
08402700
08788100
08000000
08000000
08000000
08000000
07000000
ENDCHAR
STARTCHAR q
ENCODING 113
SWIDTH 286 0
DWIDTH 7 0
BBX 6 17 1 -5
BITMAP
078870
4402A0
800080
800080
800080
800080
800080
800080
800080
800080
5402A0
088880
000080
000080
000080
000080
000058
ENDCHAR
STARTCHAR r
ENCODING 114
SWIDTH 277 0
DWIDTH 7 0
BBX 6 12 1 0
BITMAP
748860
860080
800062
800010
800000
800000
800000
800000
800000
800000
800000
700000
ENDCHAR
STARTCHAR s
ENCODING 115
SWIDTH 257 0
DWIDTH 6 0
BBX 6 12 0 0
BITMAP
038860
080052
080000
080000
063000
008400
000750
000082
000017
310007
270044
058870
ENDCHAR
STARTCHAR t
ENCODING 116
SWIDTH 207 0
DWIDTH 5 0
BBX 5 15 0 0
BITMAP
007000
008000
008000
68B820
008000
008000
008000
008000
008000
008000
008000
008000
008000
008000
006820
ENDCHAR
STARTCHAR u
ENCODING 117
SWIDTH 307 0
DWIDTH 7 0
BBX 5 12 1 0
BITMAP
700070
800080
800080
800080
800080
800080
800080
800080
800080
700080
8002C0
298770
ENDCHAR
STARTCHAR v
ENCODING 118
SWIDTH 285 0
DWIDTH 7 0
BBX 7 12 0 0
BITMAP
61000340
44000610
07000800
08000800
07002600
05305200
01607000
00807000
00816000
00663000
002C0000
00090000
ENDCHAR
STARTCHAR w
ENCODING 119
SWIDTH 396 0
DWIDTH 10 0
BBX 9 12 0 0
BITMAP
4300000070
3500000080
1600000080
0700830070
0801780160
0802670250
0800870440
0800A30530
0801A60620
0808172700
0765009800
0570002B00
ENDCHAR
STARTCHAR x
ENCODING 120
SWIDTH 244 0
DWIDTH 6 0
BBX 6 12 0 0
BITMAP
250070
080080
071350
026800
008800
007400
008700
018800
053530
080080
170080
620044
ENDCHAR
STARTCHAR y
ENCODING 121
SWIDTH 285 0
DWIDTH 7 0
BBX 7 17 0 -5
BITMAP
61000340
44000610
17000800
08000700
07001600
05305200
02607000
00807000
00807000
00654000
003B1000
000B0000
00070000
00250000
00620000
00800000
69300000
ENDCHAR
STARTCHAR z
ENCODING 122
SWIDTH 233 0
DWIDTH 6 0
BBX 5 12 0 0
BITMAP
1888B0
000080
000340
000700
000700
005300
008000
017000
062000
080000
260000
698880
ENDCHAR
STARTCHAR braceleft
ENCODING 123
SWIDTH 306 0
DWIDTH 7 0
BBX 8 21 0 -2
BITMAP
00003882
00008000
00008000
00008000
00008000
00008000
00008000
00008000
00008000
29857000
710D2000
29857000
00008000
00008000
00008000
00008000
00008000
00008000
00008000
00008000
00003882
ENDCHAR
STARTCHAR bar
ENCODING 124
SWIDTH 141 0
DWIDTH 3 0
BBX 1 21 1 -2
BITMAP
30
80
80
80
80
80
80
80
80
80
80
80
80
80
80
80
80
80
80
80
70
ENDCHAR
STARTCHAR braceright
ENCODING 125
SWIDTH 306 0
DWIDTH 7 0
BBX 7 21 0 -2
BITMAP
78600000
00610000
00530000
00530000
00530000
00530000
00530000
00530000
00440000
00288850
000C4080
00288840
00440000
00530000
00530000
00530000
00530000
00530000
00530000
00610000
78600000
ENDCHAR
STARTCHAR asciitilde
ENCODING 126
SWIDTH 433 0
DWIDTH 10 0
BBX 9 2 1 6
BITMAP
3987300430
7001588600
ENDCHAR
STARTCHAR uni00A0
ENCODING 160
SWIDTH 240 0
DWIDTH 6 0
BBX 1 1 0 0
BITMAP
00
ENDCHAR
STARTCHAR exclamdown
ENCODING 161
SWIDTH 141 0
DWIDTH 3 0
BBX 1 17 1 -4
BITMAP
70
80
30
00
20
80
80
80
80
80
80
80
80
80
80
80
70
ENDCHAR
STARTCHAR cent
ENCODING 162
SWIDTH 275 0
DWIDTH 7 0
BBX 5 17 1 -2
BITMAP
003000
008000
008000
04C800
288360
818070
808000
908000
808000
808000
908000
808030
638080
099830
01A200
008000
007000
ENDCHAR
STARTCHAR sterling
ENCODING 163
SWIDTH 331 0
DWIDTH 8 0
BBX 8 17 0 0
BITMAP
02888810
0A100180
35000030
53000000
35000000
08000000
05400000
00900000
18AA8800
00080000
00080000
00080000
00260000
00720000
01800000
09100000
6B888883
ENDCHAR
STARTCHAR currency
ENCODING 164
SWIDTH 506 0
DWIDTH 12 0
BBX 10 11 1 2
BITMAP
6100000007
1939889382
02B1000950
0720000180
0800000080
0800000071
0800000080
0630000180
03C3002A60
3817887164
4000000005
ENDCHAR
STARTCHAR yen
ENCODING 165
SWIDTH 370 0
DWIDTH 9 0
BBX 9 17 0 0
BITMAP
7000000160
3500000720
0800000800
0540005300
0080008000
0062044000
0018080000
0007460000
0001C00000
0000800000
0588C88400
0000800000
0000800000
0588C88400
0000800000
0000800000
0000700000
ENDCHAR
STARTCHAR brokenbar
ENCODING 166
SWIDTH 141 0
DWIDTH 3 0
BBX 1 21 1 -2
BITMAP
30
80
80
80
80
80
80
80
70
00
00
00
30
80
80
80
80
80
80
80
70
ENDCHAR
STARTCHAR section
ENCODING 167
SWIDTH 303 0
DWIDTH 7 0
BBX 7 22 0 -2
BITMAP
00788200
08200810
26000260
44000000
36000000
09100000
02A10000
002B3000
02DFF400
0BD9CE10
0D101C40
08000540
04000410
00000000
00122000
00008400
00000910
00000260
00000080
51000260
19101910
02888100
ENDCHAR
STARTCHAR dieresis
ENCODING 168
SWIDTH 241 0
DWIDTH 6 0
BBX 4 3 1 13
BITMAP
6025
8025
7025
ENDCHAR
STARTCHAR copyright
ENCODING 169
SWIDTH 772 0
DWIDTH 19 0
BBX 17 18 1 0
BITMAP
000004888861000000
000394000027710000
005600000000291000
046000078700019000
090000720200003600
630000800000000800
800003500000000530
800005300000000160
800006200000000080
800006200000000080
800005300000000160
800003500000000530
630000800000000800
090000720100003600
046000078600019000
005600000000291000
000394000027700000
000004888861000000
ENDCHAR
STARTCHAR ordfeminine
ENCODING 170
SWIDTH 231 0
DWIDTH 6 0
BBX 5 8 0 9
BITMAP
078700
040710
000610
002B10
077710
350610
620910
298870
ENDCHAR
STARTCHAR guillemotleft
ENCODING 171
SWIDTH 403 0
DWIDTH 10 0
BBX 8 10 1 2
BITMAP
00042015
00280091
01900720
09106400
82046000
91063000
19008200
03700910
00460190
00062026
ENDCHAR
STARTCHAR logicalnot
ENCODING 172
SWIDTH 557 0
DWIDTH 13 0
BBX 12 5 1 3
BITMAP
888888888884
000000000016
000000000016
000000000016
000000000001
ENDCHAR
STARTCHAR uni00AD
ENCODING 173
SWIDTH 286 0
DWIDTH 7 0
BBX 5 1 1 7
BITMAP
788860
ENDCHAR
STARTCHAR registered
ENCODING 174
SWIDTH 772 0
DWIDTH 19 0
BBX 17 18 1 0
BITMAP
000004888861000000
000394000027710000
005600000000291000
046000000000019000
090000688300003600
630000800800000800
800000800530000530
800000800520000160
800000801900000080
800000889700000080
800000800800000160
800000800430000530
630000800170000800
090000800080003600
046000500050019000
005600000000291000
000394000027700000
000004888861000000
ENDCHAR
STARTCHAR macron
ENCODING 175
SWIDTH 266 0
DWIDTH 6 0
BBX 4 1 1 14
BITMAP
4887
ENDCHAR
STARTCHAR degree
ENCODING 176
SWIDTH 350 0
DWIDTH 8 0
BBX 7 7 1 11
BITMAP
03886000
38003800
80000810
80000630
80000810
38004700
03886000
ENDCHAR
STARTCHAR plusminus
ENCODING 177
SWIDTH 577 0
DWIDTH 14 0
BBX 12 12 1 0
BITMAP
000005200000
000005300000
000005300000
000005300000
58888A988884
000005300000
000005300000
000005300000
000005300000
000004200000
000000000000
588888888884
ENDCHAR
STARTCHAR uni00B2
ENCODING 178
SWIDTH 207 0
DWIDTH 5 0
BBX 5 8 0 9
BITMAP
078700
050710
000700
001900
007200
046000
090000
3A8810
ENDCHAR
STARTCHAR uni00B3
ENCODING 179
SWIDTH 214 0
DWIDTH 5 0
BBX 5 8 0 9
BITMAP
078600
030700
000800
00A500
000800
000520
110710
198600
ENDCHAR
STARTCHAR acute
ENCODING 180
SWIDTH 201 0
DWIDTH 5 0
BBX 3 3 1 13
BITMAP
0330
0900
5300
ENDCHAR
STARTCHAR uni00B5
ENCODING 181
SWIDTH 335 0
DWIDTH 8 0
BBX 7 17 1 -5
BITMAP
70005200
80005300
80005300
80005300
80005300
80005300
80005300
80005300
80005300
80005300
81009300
88885A30
80000000
80000000
80000000
80000000
70000000
ENDCHAR
STARTCHAR paragraph
ENCODING 182
SWIDTH 471 0
DWIDTH 11 0
BBX 9 17 1 0
BITMAP
019EFF7070
0BFFFF7080
3FFFFF7080
7FFFFF7080
8FFFFF7080
6FFFFF7080
2EFFFF7080
07FFFF7080
00389A7080
0000017080
0000017080
0000017080
0000017080
0000017080
0000017080
0000017080
0000016070
ENDCHAR
STARTCHAR periodcentered
ENCODING 183
SWIDTH 181 0
DWIDTH 4 0
BBX 2 3 1 6
BITMAP
03
16
16
ENDCHAR
STARTCHAR cedilla
ENCODING 184
SWIDTH 232 0
DWIDTH 6 0
BBX 4 5 1 -4
BITMAP
0600
1B60
1171
2071
2850
ENDCHAR
STARTCHAR uni00B9
ENCODING 185
SWIDTH 176 0
DWIDTH 4 0
BBX 4 8 0 9
BITMAP
2970
1180
0080
0080
0080
0080
0080
28B6
ENDCHAR
STARTCHAR ordmasculine
ENCODING 186
SWIDTH 201 0
DWIDTH 5 0
BBX 5 8 0 9
BITMAP
069400
170800
430610
620530
620530
430610
170800
069400
ENDCHAR
STARTCHAR guillemotright
ENCODING 187
SWIDTH 403 0
DWIDTH 10 0
BBX 8 10 1 2
BITMAP
80062000
28009100
04601900
00640280
00082037
00091064
00820460
06402800
46019000
60051000
ENDCHAR
STARTCHAR onequarter
ENCODING 188
SWIDTH 527 0
DWIDTH 13 0
BBX 11 17 1 0
BITMAP
5C1000000700
161000004500
061000008000
061000035000
061000080000
061000360000
061000800000
5B8302600000
000008000000
000026007000
000081026000
000170071000
000710084300
001700634300
00710088A930
017000004300
062000004300
ENDCHAR
STARTCHAR onehalf
ENCODING 189
SWIDTH 540 0
DWIDTH 13 0
BBX 11 17 1 0
BITMAP
5C1000000700
161000004500
061000008000
061000035000
061000080000
061000360000
061000800000
5B8302600000
000008000000
000026029830
000081051080
000170000070
000710000630
001700002800
007100009100
017000054000
062000098850
ENDCHAR
STARTCHAR threequarters
ENCODING 190
SWIDTH 517 0
DWIDTH 12 0
BBX 12 17 0 0
BITMAP
078600000070
030700000450
000800000800
00A500003500
000800008000
000520036000
110710080000
198600260000
000000800000
000002600610
000008100800
000017004410
000071008170
000170026170
0007100588B4
001700000170
006200000160
ENDCHAR
STARTCHAR questiondown
ENCODING 191
SWIDTH 300 0
DWIDTH 7 0
BBX 6 17 1 -4
BITMAP
003400
003500
001200
000000
001100
002700
000800
000900
004500
009000
072000
180000
620000
800000
800001
540054
088860
ENDCHAR
STARTCHAR Agrave
ENCODING 192
SWIDTH 414 0
DWIDTH 10 0
BBX 10 21 0 0
BITMAP
0005300000
0000900000
0000210000
0000000000
0000540000
0000870000
0000770000
0002561000
0006115000
0006006000
0006006000
0033004200
0050000500
0088888700
0050000500
0420000330
0600000060
0600000060
1600000060
4200000043
6000000006
ENDCHAR
STARTCHAR Aacute
ENCODING 193
SWIDTH 414 0
DWIDTH 10 0
BBX 10 21 0 0
BITMAP
0000026000
0000090000
0000020000
0000000000
0000540000
0000870000
0000770000
0002561000
0006115000
0006006000
0006006000
0033004200
0050000500
0088888700
0050000500
0420000330
0600000060
0600000060
1600000060
4200000043
6000000006
ENDCHAR
STARTCHAR Acircumflex
ENCODING 194
SWIDTH 414 0
DWIDTH 10 0
BBX 10 20 0 0
BITMAP
0000660000
0004673000
0004003000
0000540000
0000870000
0000770000
0002561000
0006115000
0006006000
0006006000
0033004200
0050000500
0088888700
0050000500
0420000330
0600000060
0600000060
1600000060
4200000043
6000000006
ENDCHAR
STARTCHAR Atilde
ENCODING 195
SWIDTH 414 0
DWIDTH 10 0
BBX 10 21 0 0
BITMAP
0007815000
0015186000
0000000000
0000000000
0000540000
0000870000
0000770000
0002561000
0006115000
0006006000
0006006000
0033004200
0050000500
0088888700
0050000500
0420000330
0600000060
0600000060
1600000060
4200000043
6000000006
ENDCHAR
STARTCHAR Adieresis
ENCODING 196
SWIDTH 414 0
DWIDTH 10 0
BBX 10 21 0 0
BITMAP
0002112000
0006234000
0005234000
0000000000
0000540000
0000870000
0000770000
0002561000
0006115000
0006006000
0006006000
0033004200
0050000500
0088888700
0050000500
0420000330
0600000060
0600000060
1600000060
4200000043
6000000006
ENDCHAR
STARTCHAR Aring
ENCODING 197
SWIDTH 414 0
DWIDTH 10 0
BBX 10 21 0 0
BITMAP
0001870000
0005343000
0001870000
0000000000
0000540000
0000870000
0000770000
0002561000
0006115000
0006006000
0006006000
0033004200
0050000500
0088888700
0050000500
0420000330
0600000060
0600000060
1600000060
4200000043
6000000006
ENDCHAR
STARTCHAR AE
ENCODING 198
SWIDTH 545 0
DWIDTH 13 0
BBX 12 17 0 0
BITMAP
0000001B8888
000000680000
000000780000
000004380000
000006080000
000015080000
000050080000
0000500B8886
000410080000
000788880000
002300080000
005000080000
005000080000
051000080000
060000080000
250000080000
6000000A8888
ENDCHAR
STARTCHAR Ccedilla
ENCODING 199
SWIDTH 366 0
DWIDTH 9 0
BBX 8 21 0 -4
BITMAP
00068885
00640003
01800000
06200000
08000000
08000000
08000000
08000000
17000000
08000000
08000000
08000000
08000000
06200000
01800000
00640003
00069D85
00007930
00002080
00002080
00006820
ENDCHAR
STARTCHAR Egrave
ENCODING 200
SWIDTH 309 0
DWIDTH 7 0
BBX 6 21 1 0
BITMAP
053000
009000
002100
000000
888883
800000
800000
800000
800000
800000
800000
888881
800000
800000
800000
800000
800000
800000
800000
800000
888883
ENDCHAR
STARTCHAR Eacute
ENCODING 201
SWIDTH 309 0
DWIDTH 7 0
BBX 6 21 1 0
BITMAP
000260
000900
000200
000000
888883
800000
800000
800000
800000
800000
800000
888881
800000
800000
800000
800000
800000
800000
800000
800000
888883
ENDCHAR
STARTCHAR Ecircumflex
ENCODING 202
SWIDTH 309 0
DWIDTH 7 0
BBX 6 20 1 0
BITMAP
006600
046730
040030
888883
800000
800000
800000
800000
800000
800000
888881
800000
800000
800000
800000
800000
800000
800000
800000
888883
ENDCHAR
STARTCHAR Edieresis
ENCODING 203
SWIDTH 309 0
DWIDTH 7 0
BBX 6 21 1 0
BITMAP
020120
062340
051340
000000
888883
800000
800000
800000
800000
800000
800000
888881
800000
800000
800000
800000
800000
800000
800000
800000
888883
ENDCHAR
STARTCHAR Igrave
ENCODING 204
SWIDTH 141 0
DWIDTH 3 0
BBX 2 21 0 0
BITMAP
71
27
03
00
07
08
08
08
08
08
08
08
08
08
08
08
08
08
08
08
07
ENDCHAR
STARTCHAR Iacute
ENCODING 205
SWIDTH 141 0
DWIDTH 3 0
BBX 3 21 1 0
BITMAP
0530
1800
2100
0000
7000
8000
8000
8000
8000
8000
8000
8000
8000
8000
8000
8000
8000
8000
8000
8000
7000
ENDCHAR
STARTCHAR Icircumflex
ENCODING 206
SWIDTH 141 0
DWIDTH 3 0
BBX 4 20 0 0
BITMAP
0930
7391
4012
0700
0800
0800
0800
0800
0800
0800
0800
0800
0800
0800
0800
0800
0800
0800
0800
0700
ENDCHAR
STARTCHAR Idieresis
ENCODING 207
SWIDTH 141 0
DWIDTH 3 0
BBX 3 21 0 0
BITMAP
3030
8070
7060
0000
0700
0800
0800
0800
0800
0800
0800
0800
0800
0800
0800
0800
0800
0800
0800
0800
0700
ENDCHAR
STARTCHAR Eth
ENCODING 208
SWIDTH 396 0
DWIDTH 10 0
BBX 9 17 0 0
BITMAP
0888883000
0800008200
0800001800
0800000800
0800000530
0800000350
0800000170
0800000080
5B88500080
0800000080
0800000170
0800000350
0800000530
0800000800
0800001800
0800008200
0888883000
ENDCHAR
STARTCHAR Ntilde
ENCODING 209
SWIDTH 422 0
DWIDTH 10 0
BBX 8 21 1 0
BITMAP
00681510
00518700
00000000
00000000
71000007
87000008
89000008
85400008
80900008
80720008
80170008
80080008
80045008
80009008
80006208
80001808
80000808
80000358
80000088
8000005A
70000009
ENDCHAR
STARTCHAR Ograve
ENCODING 210
SWIDTH 446 0
DWIDTH 11 0
BBX 10 21 0 0
BITMAP
0001700000
0000630000
0000030000
0000000000
0006888300
0064000820
0180000090
0620000072
0800000035
0800000008
0800000008
0800000008
1700000008
0800000008
0800000008
0800000008
0800000036
0620000072
0180000090
0064000830
0006888300
ENDCHAR
STARTCHAR Oacute
ENCODING 211
SWIDTH 446 0
DWIDTH 11 0
BBX 10 21 0 0
BITMAP
0000008000
0000054000
0000030000
0000000000
0006888300
0064000820
0180000090
0620000072
0800000035
0800000008
0800000008
0800000008
1700000008
0800000008
0800000008
0800000008
0800000036
0620000072
0180000090
0064000830
0006888300
ENDCHAR
STARTCHAR Ocircumflex
ENCODING 212
SWIDTH 446 0
DWIDTH 11 0
BBX 10 20 0 0
BITMAP
00002A0000
0000927000
0002203000
0006888300
0064000820
0180000090
0620000072
0800000035
0800000008
0800000008
0800000008
1700000008
0800000008
0800000008
0800000008
0800000036
0620000072
0180000090
0064000830
0006888300
ENDCHAR
STARTCHAR Otilde
ENCODING 213
SWIDTH 446 0
DWIDTH 11 0
BBX 10 21 0 0
BITMAP
0004831400
0005068100
0000000000
0000000000
0006888300
0064000820
0180000090
0620000072
0800000035
0800000008
0800000008
0800000008
1700000008
0800000008
0800000008
0800000008
0800000036
0620000072
0180000090
0064000830
0006888300
ENDCHAR
STARTCHAR Odieresis
ENCODING 214
SWIDTH 446 0
DWIDTH 11 0
BBX 10 21 0 0
BITMAP
0000303000
0000808000
0000707000
0000000000
0006888300
0064000820
0180000090
0620000072
0800000035
0800000008
0800000008
0800000008
1700000008
0800000008
0800000008
0800000008
0800000036
0620000072
0180000090
0064000830
0006888300
ENDCHAR
STARTCHAR multiply
ENCODING 215
SWIDTH 445 0
DWIDTH 11 0
BBX 9 9 1 2
BITMAP
1000000060
8200000820
0820008200
0082082000
0008920000
0008920000
0082082000
0820008200
7200000820
ENDCHAR
STARTCHAR Oslash
ENCODING 216
SWIDTH 446 0
DWIDTH 11 0
BBX 10 17 0 0
BITMAP
0006889252
0065000890
01800003A0
0620000881
0800002635
0800007108
0800017008
0800062008
1700080008
0800530008
0800800008
0803500008
0808000036
0646000072
01C1000090
01B4000830
0626889300
ENDCHAR
STARTCHAR Ugrave
ENCODING 217
SWIDTH 412 0
DWIDTH 10 0
BBX 8 21 1 0
BITMAP
00620000
00090000
00020000
00000000
70000007
80000008
80000008
80000008
80000008
80000008
80000008
80000008
80000008
80000008
80000008
80000008
80000008
70000007
70000017
28000081
04988930
ENDCHAR
STARTCHAR Uacute
ENCODING 218
SWIDTH 412 0
DWIDTH 10 0
BBX 8 21 1 0
BITMAP
00002600
00009000
00002000
00000000
70000007
80000008
80000008
80000008
80000008
80000008
80000008
80000008
80000008
80000008
80000008
80000008
80000008
70000007
70000017
28000081
04988930
ENDCHAR
STARTCHAR Ucircumflex
ENCODING 219
SWIDTH 412 0
DWIDTH 10 0
BBX 8 20 1 0
BITMAP
00065000
00467300
00400300
70000007
80000008
80000008
80000008
80000008
80000008
80000008
80000008
80000008
80000008
80000008
80000008
80000008
70000007
70000017
28000081
04988930
ENDCHAR
STARTCHAR Udieresis
ENCODING 220
SWIDTH 412 0
DWIDTH 10 0
BBX 8 21 1 0
BITMAP
00201100
00614400
00513300
00000000
70000007
80000008
80000008
80000008
80000008
80000008
80000008
80000008
80000008
80000008
80000008
80000008
80000008
70000007
70000017
28000081
04988930
ENDCHAR
STARTCHAR Yacute
ENCODING 221
SWIDTH 370 0
DWIDTH 9 0
BBX 9 21 0 0
BITMAP
0000080000
0000450000
0000300000
0000000000
7000000160
4400000620
0800000800
0630004400
0080008000
0071036000
0017080000
0008170000
0003B20000
0000900000
0000800000
0000800000
0000800000
0000800000
0000800000
0000800000
0000700000
ENDCHAR
STARTCHAR Thorn
ENCODING 222
SWIDTH 341 0
DWIDTH 8 0
BBX 7 17 1 0
BITMAP
70000000
80000000
80000000
88887100
80002800
80000620
80000250
80000160
80000350
80000810
80005600
88884000
80000000
80000000
80000000
80000000
70000000
ENDCHAR
STARTCHAR germandbls
ENCODING 223
SWIDTH 327 0
DWIDTH 8 0
BBX 6 17 1 0
BITMAP
078820
360080
710080
800062
800071
800080
818890
8535A0
818762
800017
800008
800008
800008
800007
800043
800080
748820
ENDCHAR
STARTCHAR agrave
ENCODING 224
SWIDTH 315 0
DWIDTH 8 0
BBX 7 16 0 0
BITMAP
00600000
00360000
00071000
00000000
00889100
08201700
00000700
00000800
00000800
00027900
00771800
08200800
27000800
44000800
26006900
07884880
ENDCHAR
STARTCHAR aacute
ENCODING 225
SWIDTH 315 0
DWIDTH 8 0
BBX 7 16 0 0
BITMAP
00005100
00018000
00071000
00000000
00889100
08201700
00000700
00000800
00000800
00027900
00771800
08200800
27000800
44000800
26006900
07884880
ENDCHAR
STARTCHAR acircumflex
ENCODING 226
SWIDTH 315 0
DWIDTH 8 0
BBX 7 16 0 0
BITMAP
000A3000
00739000
01602600
00000000
00889100
08201700
00000700
00000800
00000800
00027900
00771800
08200800
27000800
44000800
26006900
07884880
ENDCHAR
STARTCHAR atilde
ENCODING 227
SWIDTH 315 0
DWIDTH 8 0
BBX 7 16 0 0
BITMAP
02860600
04138500
00000000
00000000
00889100
08201700
00000700
00000800
00000800
00027900
00771800
08200800
27000800
44000800
26006900
07884880
ENDCHAR
STARTCHAR adieresis
ENCODING 228
SWIDTH 315 0
DWIDTH 8 0
BBX 7 16 0 0
BITMAP
00605100
00806200
00705200
00000000
00889100
08201700
00000700
00000800
00000800
00027900
00771800
08200800
27000800
44000800
26006900
07884880
ENDCHAR
STARTCHAR aring
ENCODING 229
SWIDTH 315 0
DWIDTH 8 0
BBX 7 17 0 0
BITMAP
00285000
00807100
00807100
00285000
00000000
00889100
08201700
00000700
00000800
00000800
00027900
00771800
08200800
27000800
44000800
26006900
07884880
ENDCHAR
STARTCHAR ae
ENCODING 230
SWIDTH 450 0
DWIDTH 11 0
BBX 11 12 0 0
BITMAP
019891389100
081016701700
000009300800
00000C000800
00000A000710
00158C888900
058308000000
180008000000
350008000000
340008100400
170058600800
068850689200
ENDCHAR
STARTCHAR ccedilla
ENCODING 231
SWIDTH 275 0
DWIDTH 7 0
BBX 5 16 1 -4
BITMAP
068910
360180
800050
800000
800000
800000
800000
800000
800000
800050
360170
06E910
02B500
010800
020800
038500
ENDCHAR
STARTCHAR egrave
ENCODING 232
SWIDTH 285 0
DWIDTH 7 0
BBX 6 16 1 0
BITMAP
060000
036000
008100
000000
068810
350170
700080
700071
B88891
700000
800000
800000
900000
810060
270180
068910
ENDCHAR
STARTCHAR eacute
ENCODING 233
SWIDTH 285 0
DWIDTH 7 0
BBX 6 16 1 0
BITMAP
000510
001800
007100
000000
068810
350170
700080
700071
B88891
700000
800000
800000
900000
810060
270180
068910
ENDCHAR
STARTCHAR ecircumflex
ENCODING 234
SWIDTH 285 0
DWIDTH 7 0
BBX 6 16 1 0
BITMAP
00A300
073900
160250
000000
068810
350170
700080
700071
B88891
700000
800000
800000
900000
810060
270180
068910
ENDCHAR
STARTCHAR edieresis
ENCODING 235
SWIDTH 285 0
DWIDTH 7 0
BBX 6 16 1 0
BITMAP
060510
080620
070510
000000
068810
350170
700080
700071
B88891
700000
800000
800000
900000
810060
270180
068910
ENDCHAR
STARTCHAR igrave
ENCODING 236
SWIDTH 141 0
DWIDTH 3 0
BBX 3 16 0 0
BITMAP
6000
3600
0710
0000
0700
0800
0800
0800
0800
0800
0800
0800
0800
0800
0800
0700
ENDCHAR
STARTCHAR iacute
ENCODING 237
SWIDTH 141 0
DWIDTH 3 0
BBX 3 16 1 0
BITMAP
0520
1800
7100
0000
7000
8000
8000
8000
8000
8000
8000
8000
8000
8000
8000
7000
ENDCHAR
STARTCHAR icircumflex
ENCODING 238
SWIDTH 141 0
DWIDTH 3 0
BBX 5 16 -1 0
BITMAP
00A300
073900
160260
000000
007000
008000
008000
008000
008000
008000
008000
008000
008000
008000
008000
007000
ENDCHAR
STARTCHAR idieresis
ENCODING 239
SWIDTH 141 0
DWIDTH 3 0
BBX 4 16 0 0
BITMAP
6052
8052
7052
0000
0700
0800
0800
0800
0800
0800
0800
0800
0800
0800
0800
0700
ENDCHAR
STARTCHAR eth
ENCODING 240
SWIDTH 319 0
DWIDTH 8 0
BBX 6 18 1 0
BITMAP
270000
046000
007582
068B00
020540
000090
0588A1
270084
810017
800008
800008
800008
800008
800008
800025
810071
270180
058810
ENDCHAR
STARTCHAR ntilde
ENCODING 241
SWIDTH 307 0
DWIDTH 7 0
BBX 6 16 1 0
BITMAP
286060
413850
000000
000000
748860
870080
800062
800053
800053
800053
800053
800053
800053
800053
800053
700052
ENDCHAR
STARTCHAR ograve
ENCODING 242
SWIDTH 309 0
DWIDTH 7 0
BBX 6 16 1 0
BITMAP
060000
036000
007100
000000
068810
360170
800070
800053
800025
800016
800026
800025
800053
800070
360170
068810
ENDCHAR
STARTCHAR oacute
ENCODING 243
SWIDTH 309 0
DWIDTH 7 0
BBX 6 16 1 0
BITMAP
000520
001800
007200
000000
068810
360170
800070
800053
800025
800016
800026
800025
800053
800070
360170
068810
ENDCHAR
STARTCHAR ocircumflex
ENCODING 244
SWIDTH 309 0
DWIDTH 7 0
BBX 6 16 1 0
BITMAP
00A300
063910
160260
000000
068810
360170
800070
800053
800025
800016
800026
800025
800053
800070
360170
068810
ENDCHAR
STARTCHAR otilde
ENCODING 245
SWIDTH 309 0
DWIDTH 7 0
BBX 6 16 1 0
BITMAP
186060
413850
000000
000000
068810
360170
800070
800053
800025
800016
800026
800025
800053
800070
360170
068810
ENDCHAR
STARTCHAR odieresis
ENCODING 246
SWIDTH 309 0
DWIDTH 7 0
BBX 6 16 1 0
BITMAP
060520
080520
070520
000000
068810
360170
800070
800053
800025
800016
800026
800025
800053
800070
360170
068810
ENDCHAR
STARTCHAR divide
ENCODING 247
SWIDTH 577 0
DWIDTH 14 0
BBX 12 12 1 0
BITMAP
000004200000
000005300000
000002100000
000000000000
000000000000
000000000000
588888888884
000000000000
000000000000
000002100000
000005300000
000004200000
ENDCHAR
STARTCHAR oslash
ENCODING 248
SWIDTH 309 0
DWIDTH 7 0
BBX 6 12 1 0
BITMAP
068853
3602C0
8002D0
800763
800835
805326
808016
826025
871053
880070
660170
768810
ENDCHAR
STARTCHAR ugrave
ENCODING 249
SWIDTH 307 0
DWIDTH 7 0
BBX 5 16 1 0
BITMAP
060000
036000
007100
000000
700070
800080
800080
800080
800080
800080
800080
800080
800080
700080
8002C0
298770
ENDCHAR
STARTCHAR uacute
ENCODING 250
SWIDTH 307 0
DWIDTH 7 0
BBX 5 16 1 0
BITMAP
000510
001800
007100
000000
700070
800080
800080
800080
800080
800080
800080
800080
800080
700080
8002C0
298770
ENDCHAR
STARTCHAR ucircumflex
ENCODING 251
SWIDTH 307 0
DWIDTH 7 0
BBX 5 16 1 0
BITMAP
00A300
073900
160260
000000
700070
800080
800080
800080
800080
800080
800080
800080
800080
700080
8002C0
298770
ENDCHAR
STARTCHAR udieresis
ENCODING 252
SWIDTH 307 0
DWIDTH 7 0
BBX 5 16 1 0
BITMAP
060510
080620
070520
000000
700070
800080
800080
800080
800080
800080
800080
800080
800080
700080
8002C0
298770
ENDCHAR
STARTCHAR yacute
ENCODING 253
SWIDTH 285 0
DWIDTH 7 0
BBX 7 21 0 -5
BITMAP
00006000
00045000
00080000
00000000
61000340
44000610
17000800
08000700
07001600
05305200
02607000
00807000
00807000
00654000
003B1000
000B0000
00070000
00250000
00620000
00800000
69300000
ENDCHAR
STARTCHAR thorn
ENCODING 254
SWIDTH 299 0
DWIDTH 7 0
BBX 7 22 0 -5
BITMAP
07000000
08000000
08000000
08000000
08000000
0A888100
6A002700
08000800
08000710
08000620
08000530
08000530
08000620
08000700
08000800
08402700
08788100
08000000
08000000
08000000
08000000
07000000
ENDCHAR
STARTCHAR ydieresis
ENCODING 255
SWIDTH 285 0
DWIDTH 7 0
BBX 7 21 0 -5
BITMAP
00606000
00708000
00607000
00000000
61000340
44000610
17000800
08000700
07001600
05305200
02607000
00807000
00807000
00654000
003B1000
000B0000
00070000
00250000
00620000
00800000
69300000
ENDCHAR
STARTCHAR dotlessi
ENCODING 305
SWIDTH 141 0
DWIDTH 3 0
BBX 1 12 1 0
BITMAP
70
80
80
80
80
80
80
80
80
80
80
70
ENDCHAR
STARTCHAR OE
ENCODING 338
SWIDTH 505 0
DWIDTH 12 0
BBX 12 17 0 0
BITMAP
000688B88881
007400800000
018000800000
062000800000
080000800000
080000800000
080000800000
080000A88860
170000800000
080000800000
080000800000
080000800000
080000800000
063000800000
018000800000
006400800000
000688B88881
ENDCHAR
STARTCHAR oe
ENCODING 339
SWIDTH 492 0
DWIDTH 12 0
BBX 11 12 1 0
BITMAP
068810688100
360183501700
800088000800
800059000800
80002B888910
800017000000
800027000000
800029000000
800059000000
800067100600
360161601800
068800589100
ENDCHAR
STARTCHAR Wcircumflex
ENCODING 372
SWIDTH 534 0
DWIDTH 13 0
BBX 11 20 1 0
BITMAP
00002A000000
000092800000
000120300000
700000000070
700000000070
700000000070
800000000070
800000000170
80004A200260
700072500350
710072600440
620074400530
53004A100620
44000B000710
25003C100700
160082700700
070540630700
072800090700
089000028700
0A1000003800
ENDCHAR
STARTCHAR wcircumflex
ENCODING 373
SWIDTH 396 0
DWIDTH 10 0
BBX 9 16 0 0
BITMAP
0000A40000
0006391000
0017016000
0000000000
4300000070
3500000080
1600000080
0700830070
0801780160
0802670250
0800870440
0800A30530
0801A60620
0808172700
0765009800
0570002B00
ENDCHAR
STARTCHAR Ycircumflex
ENCODING 374
SWIDTH 370 0
DWIDTH 9 0
BBX 9 20 0 0
BITMAP
0001A10000
0009280000
0012030000
7000000160
4400000620
0800000800
0630004400
0080008000
0071036000
0017080000
0008170000
0003B20000
0000900000
0000800000
0000800000
0000800000
0000800000
0000800000
0000800000
0000700000
ENDCHAR
STARTCHAR ycircumflex
ENCODING 375
SWIDTH 285 0
DWIDTH 7 0
BBX 7 21 0 -5
BITMAP
002B1000
00928000
04305300
00000000
61000340
44000610
17000800
08000700
07001600
05305200
02607000
00807000
00807000
00654000
003B1000
000B0000
00070000
00250000
00620000
00800000
69300000
ENDCHAR
STARTCHAR Ydieresis
ENCODING 376
SWIDTH 370 0
DWIDTH 9 0
BBX 9 21 0 0
BITMAP
0003030000
0008080000
0007070000
0000000000
7000000160
4400000620
0800000800
0630004400
0080008000
0071036000
0017080000
0008170000
0003B20000
0000900000
0000800000
0000800000
0000800000
0000800000
0000800000
0000800000
0000700000
ENDCHAR
STARTCHAR uni0237
ENCODING 567
SWIDTH 141 0
DWIDTH 3 0
BBX 4 17 -2 -5
BITMAP
0007
0008
0008
0008
0008
0008
0008
0008
0008
0008
0008
0008
0008
0007
0008
0045
6860
ENDCHAR
STARTCHAR circumflex
ENCODING 710
SWIDTH 280 0
DWIDTH 7 0
BBX 5 3 1 13
BITMAP
02B000
092700
520620
ENDCHAR
STARTCHAR ring
ENCODING 730
SWIDTH 238 0
DWIDTH 6 0
BBX 4 4 1 13
BITMAP
1870
7153
7152
1760
ENDCHAR
STARTCHAR tilde
ENCODING 732
SWIDTH 301 0
DWIDTH 7 0
BBX 5 2 1 14
BITMAP
286060
504840
ENDCHAR
STARTCHAR gravecomb
ENCODING 768
SWIDTH 0 0
DWIDTH 0 0
BBX 3 3 1 13
BITMAP
5100
1800
0530
ENDCHAR
STARTCHAR acutecomb
ENCODING 769
SWIDTH 0 0
DWIDTH 0 0
BBX 3 3 1 13
BITMAP
0330
0900
5300
ENDCHAR
STARTCHAR uni0302
ENCODING 770
SWIDTH 0 0
DWIDTH 0 0
BBX 5 3 1 13
BITMAP
02B000
092700
520620
ENDCHAR
STARTCHAR tildecomb
ENCODING 771
SWIDTH 0 0
DWIDTH 0 0
BBX 5 2 1 14
BITMAP
286060
504840
ENDCHAR
STARTCHAR uni0307
ENCODING 775
SWIDTH 0 0
DWIDTH 0 0
BBX 1 3 1 13
BITMAP
60
80
70
ENDCHAR
STARTCHAR uni0308
ENCODING 776
SWIDTH 0 0
DWIDTH 0 0
BBX 4 3 1 13
BITMAP
6025
8025
7025
ENDCHAR
STARTCHAR uni030A
ENCODING 778
SWIDTH 0 0
DWIDTH 0 0
BBX 4 4 1 13
BITMAP
1870
7153
7152
1760
ENDCHAR
STARTCHAR uni0327
ENCODING 807
SWIDTH 0 0
DWIDTH 0 0
BBX 4 5 1 -4
BITMAP
0600
1B60
1171
2071
2850
ENDCHAR
STARTCHAR Wgrave
ENCODING 7808
SWIDTH 534 0
DWIDTH 13 0
BBX 11 21 1 0
BITMAP
000080000000
000063000000
000003000000
000000000000
700000000070
700000000070
700000000070
800000000070
800000000170
80004A200260
700072500350
710072600440
620074400530
53004A100620
44000B000710
25003C100700
160082700700
070540630700
072800090700
089000028700
0A1000003800
ENDCHAR
STARTCHAR wgrave
ENCODING 7809
SWIDTH 396 0
DWIDTH 10 0
BBX 9 16 0 0
BITMAP
0006000000
0002700000
0000710000
0000000000
4300000070
3500000080
1600000080
0700830070
0801780160
0802670250
0800870440
0800A30530
0801A60620
0808172700
0765009800
0570002B00
ENDCHAR
STARTCHAR Wacute
ENCODING 7810
SWIDTH 534 0
DWIDTH 13 0
BBX 11 21 1 0
BITMAP
000000800000
000004500000
000003000000
000000000000
700000000070
700000000070
700000000070
800000000070
800000000170
80004A200260
700072500350
710072600440
620074400530
53004A100620
44000B000710
25003C100700
160082700700
070540630700
072800090700
089000028700
0A1000003800
ENDCHAR
STARTCHAR wacute
ENCODING 7811
SWIDTH 396 0
DWIDTH 10 0
BBX 9 16 0 0
BITMAP
0000042000
0000180000
0000620000
0000000000
4300000070
3500000080
1600000080
0700830070
0801780160
0802670250
0800870440
0800A30530
0801A60620
0808172700
0765009800
0570002B00
ENDCHAR
STARTCHAR Wdieresis
ENCODING 7812
SWIDTH 534 0
DWIDTH 13 0
BBX 11 21 1 0
BITMAP
000030300000
000080800000
000070700000
000000000000
700000000070
700000000070
700000000070
800000000070
800000000170
80004A200260
700072500350
710072600440
620074400530
53004A100620
44000B000710
25003C100700
160082700700
070540630700
072800090700
089000028700
0A1000003800
ENDCHAR
STARTCHAR wdieresis
ENCODING 7813
SWIDTH 396 0
DWIDTH 10 0
BBX 9 16 0 0
BITMAP
0006042000
0008053000
0007042000
0000000000
4300000070
3500000080
1600000080
0700830070
0801780160
0802670250
0800870440
0800A30530
0801A60620
0808172700
0765009800
0570002B00
ENDCHAR
STARTCHAR uni1E9E
ENCODING 7838
SWIDTH 375 0
DWIDTH 9 0
BBX 7 17 1 0
BITMAP
05888100
18001800
62000800
80000620
80000710
80000800
80687800
80809800
80684730
80000170
80000080
80000080
80000080
80000080
80000440
80001800
74888100
ENDCHAR
STARTCHAR Ygrave
ENCODING 7922
SWIDTH 370 0
DWIDTH 9 0
BBX 9 21 0 0
BITMAP
0008000000
0005400000
0000300000
0000000000
7000000160
4400000620
0800000800
0630004400
0080008000
0071036000
0017080000
0008170000
0003B20000
0000900000
0000800000
0000800000
0000800000
0000800000
0000800000
0000800000
0000700000
ENDCHAR
STARTCHAR ygrave
ENCODING 7923
SWIDTH 285 0
DWIDTH 7 0
BBX 7 21 0 -5
BITMAP
00600000
00630000
00080000
00000000
61000340
44000610
17000800
08000700
07001600
05305200
02607000
00807000
00807000
00654000
003B1000
000B0000
00070000
00250000
00620000
00800000
69300000
ENDCHAR
STARTCHAR endash
ENCODING 8211
SWIDTH 425 0
DWIDTH 10 0
BBX 9 1 1 5
BITMAP
7888888810
ENDCHAR
STARTCHAR emdash
ENCODING 8212
SWIDTH 770 0
DWIDTH 18 0
BBX 17 1 1 5
BITMAP
788888888888888830
ENDCHAR
STARTCHAR quoteleft
ENCODING 8216
SWIDTH 145 0
DWIDTH 3 0
BBX 2 5 1 12
BITMAP
47
80
80
80
70
ENDCHAR
STARTCHAR quoteright
ENCODING 8217
SWIDTH 145 0
DWIDTH 3 0
BBX 3 5 0 12
BITMAP
0340
0340
0340
0620
2900
ENDCHAR
STARTCHAR quotesinglbase
ENCODING 8218
SWIDTH 145 0
DWIDTH 3 0
BBX 2 5 0 -2
BITMAP
06
07
07
08
56
ENDCHAR
STARTCHAR quotedblleft
ENCODING 8220
SWIDTH 219 0
DWIDTH 5 0
BBX 4 5 1 12
BITMAP
4765
8080
8070
8070
7070
ENDCHAR
STARTCHAR quotedblright
ENCODING 8221
SWIDTH 219 0
DWIDTH 5 0
BBX 5 5 0 12
BITMAP
034610
034710
034710
062800
295700
ENDCHAR
STARTCHAR quotedblbase
ENCODING 8222
SWIDTH 219 0
DWIDTH 5 0
BBX 4 5 0 -2
BITMAP
0607
0708
0708
0808
5674
ENDCHAR
STARTCHAR bullet
ENCODING 8226
SWIDTH 355 0
DWIDTH 9 0
BBX 6 6 1 6
BITMAP
05DEA1
3FFFFA
8FFFFF
7FFFFF
2FFFFA
05DEA1
ENDCHAR
STARTCHAR ellipsis
ENCODING 8230
SWIDTH 651 0
DWIDTH 16 0
BBX 13 3 1 0
BITMAP
03000030000030
16000071000080
16000061000070
ENDCHAR
STARTCHAR guilsinglleft
ENCODING 8249
SWIDTH 263 0
DWIDTH 6 0
BBX 5 10 1 2
BITMAP
000420
002800
019000
091000
820000
910000
190000
037000
004600
000620
ENDCHAR
STARTCHAR guilsinglright
ENCODING 8250
SWIDTH 263 0
DWIDTH 6 0
BBX 5 10 1 2
BITMAP
800000
280000
046000
006400
000820
000910
008200
064000
460000
600000
ENDCHAR
STARTCHAR fraction
ENCODING 8260
SWIDTH 152 0
DWIDTH 4 0
BBX 9 17 -3 0
BITMAP
0000000070
0000000270
0000000710
0000001700
0000007100
0000017000
0000071000
0000180000
0000620000
0000800000
0006200000
0008000000
0063000000
0080000000
0530000000
0800000000
4400000000
ENDCHAR
STARTCHAR uni2074
ENCODING 8308
SWIDTH 247 0
DWIDTH 6 0
BBX 5 8 0 9
BITMAP
002500
008100
017100
062700
080800
298B70
000800
000700
ENDCHAR
STARTCHAR Euro
ENCODING 8364
SWIDTH 391 0
DWIDTH 9 0
BBX 9 17 0 0
BITMAP
0001888820
0009100020
0063000000
0080000000
0170000000
0450000000
0530000000
6B98830000
0710000000
6B98830000
0530000000
0440000000
0170000000
0080000000
0063000000
0009100120
0001888820
ENDCHAR
STARTCHAR trademark
ENCODING 8482
SWIDTH 506 0
DWIDTH 12 0
BBX 11 9 0 8
BITMAP
7FFF92B102B0
0080039A6AA0
00800353C180
008003559280
00800351C080
00800354A180
00800353E180
008003500080
003001200030
ENDCHAR
STARTCHAR minus
ENCODING 8722
SWIDTH 557 0
DWIDTH 13 0
BBX 12 1 1 7
BITMAP
DDDDDDDDDDD5
ENDCHAR
STARTCHAR uni2215
ENCODING 8725
SWIDTH 259 0
DWIDTH 6 0
BBX 6 17 0 0
BITMAP
000007
000008
000035
000071
000080
000250
000710
000800
002600
007100
008000
026000
071000
080000
260000
710000
700000
ENDCHAR
STARTCHAR .notdef
ENCODING -1
SWIDTH 500 0
DWIDTH 12 0
BBX 10 22 1 -5
BITMAP
CFFFFFFFFC
C83333338C
C60000006C
C60000006C
C60000006C
C60000006C
C60000006C
C60000006C
C60000006C
C60000006C
C60000006C
C60000006C
C60000006C
C60000006C
C60000006C
C60000006C
C60000006C
C60000006C
C60000006C
C60000006C
CFFFFFFFFC
2333333332
ENDCHAR
STARTCHAR NULL
ENCODING -1
SWIDTH 600 0
DWIDTH 14 0
BBX 1 1 0 0
BITMAP
00
ENDCHAR
STARTCHAR acutecomb.case
ENCODING -1
SWIDTH 0 0
DWIDTH 0 0
BBX 2 3 1 18
BITMAP
07
36
30
ENDCHAR
STARTCHAR uni0302.case
ENCODING -1
SWIDTH 0 0
DWIDTH 0 0
BBX 4 3 1 17
BITMAP
0570
2755
3004
ENDCHAR
STARTCHAR uni0308.case
ENCODING -1
SWIDTH 0 0
DWIDTH 0 0
BBX 4 3 1 18
BITMAP
3020
8061
7051
ENDCHAR
STARTCHAR uni0307.case
ENCODING -1
SWIDTH 0 0
DWIDTH 0 0
BBX 1 3 1 18
BITMAP
30
80
70
ENDCHAR
STARTCHAR gravecomb.case
ENCODING -1
SWIDTH 0 0
DWIDTH 0 0
BBX 2 3 1 18
BITMAP
53
09
02
ENDCHAR
STARTCHAR uni030A.case
ENCODING -1
SWIDTH 0 0
DWIDTH 0 0
BBX 3 3 1 18
BITMAP
2860
7070
2860
ENDCHAR
STARTCHAR tildecomb.case
ENCODING -1
SWIDTH 0 0
DWIDTH 0 0
BBX 5 2 1 19
BITMAP
285050
505830
ENDCHAR
ENDFONT
